<svg width="25" height="25" viewBox="0 0 25 25" fill="none" xmlns="http://www.w3.org/2000/svg">
<path d="M11.7188 3.125C11.3098 3.125 10.8917 3.26843 10.5957 3.56445C10.2997 3.86047 10.1562 4.27856 10.1562 4.6875V5.46875H5.46875V7.03125H6.25V19.5312C6.25 20.816 7.30896 21.875 8.59375 21.875H17.9688C19.2535 21.875 20.3125 20.816 20.3125 19.5312V7.03125H21.0938V5.46875H16.4062V4.6875C16.4062 4.27856 16.2628 3.86047 15.9668 3.56445C15.6708 3.26843 15.2527 3.125 14.8438 3.125H11.7188ZM11.7188 4.6875H14.8438V5.46875H11.7188V4.6875ZM7.8125 7.03125H18.75V19.5312C18.75 19.9646 18.4021 20.3125 17.9688 20.3125H8.59375C8.1604 20.3125 7.8125 19.9646 7.8125 19.5312V7.03125ZM9.375 9.375V17.9688H10.9375V9.375H9.375ZM12.5 9.375V17.9688H14.0625V9.375H12.5ZM15.625 9.375V17.9688H17.1875V9.375H15.625Z" fill="#E00000"/>
</svg>
