<svg width="33" height="33" viewBox="0 0 33 33" fill="none" xmlns="http://www.w3.org/2000/svg">
<path d="M31.1524 14.6558H30.3673V9.93856C30.3673 8.00972 28.7972 6.44635 26.8751 6.44635H26.1509L26.1577 4.69347C26.1577 3.39404 25.1019 2.33826 23.8025 2.33826H2.8628C1.29943 2.33826 0.0203035 3.59708 0 5.16045C0 5.17399 0 5.18752 0 5.20106V28.3065C0 29.6059 1.05578 30.6617 2.35521 30.6617H26.8819C28.8107 30.6617 30.3741 29.0916 30.3741 27.1695V22.4456H31.1591C32.1743 22.4456 33 21.6199 33 20.6047V16.4966C32.9932 15.4814 32.1676 14.6558 31.1524 14.6558ZM2.8628 3.96254H23.8025C24.2018 3.96254 24.5334 4.2874 24.5334 4.6867L24.5267 6.44635H2.8628C2.17924 6.44635 1.62428 5.89138 1.62428 5.20783C1.62428 4.52427 2.17924 3.96254 2.8628 3.96254ZM28.743 27.1628C28.743 28.1915 27.9038 29.0307 26.8751 29.0307H2.34844C1.94914 29.0307 1.61751 28.7058 1.61751 28.2998V7.78638C1.99651 7.96911 2.41612 8.07063 2.8628 8.07063H26.8751C27.9038 8.07063 28.743 8.90984 28.743 9.93856V14.6558H23.2002C22.185 14.6558 21.3593 15.4814 21.3593 16.4966V20.6047C21.3593 21.6199 22.185 22.4456 23.2002 22.4456H28.743V27.1628ZM31.3689 20.6047C31.3689 20.7265 31.2742 20.8213 31.1524 20.8213H23.2069C23.0851 20.8213 22.9904 20.7265 22.9904 20.6047V16.4966C22.9904 16.3816 23.0851 16.28 23.2069 16.28H31.1524C31.2674 16.28 31.3689 16.3748 31.3689 16.4966V20.6047Z" fill="white"/>
</svg>
